<?xml version="1.0" encoding="utf-8"?>
<!-- Generator: Adobe Illustrator 26.0.1, SVG Export Plug-In . SVG Version: 6.00 Build 0)  -->
<svg version="1.1" id="Слой_1" xmlns="http://www.w3.org/2000/svg" x="0px" y="0px"
     viewBox="0 0 500 500" style="enable-background:new 0 0 500 500;" xml:space="preserve">
<style type="text/css">
	.st0{fill:url(#SVGID_1_);stroke:#FFFFFF;stroke-width:10;stroke-miterlimit:10;}
</style>
<linearGradient id="SVGID_1_" gradientUnits="userSpaceOnUse" x1="97.2233" y1="186.5594" x2="438.4152" y2="186.5594" gradientTransform="matrix(0 1 0.9929 0 64.7729 -17.8192)">
	<stop  offset="0" style="stop-color:#ED731A"/>
	<stop  offset="0.1802" style="stop-color:#EB7C15"/>
	<stop  offset="0.4789" style="stop-color:#E69606"/>
	<stop  offset="0.5521" style="stop-color:#E59D02"/>
	<stop  offset="0.8652" style="stop-color:#E5C501"/>
	<stop  offset="0.9944" style="stop-color:#BE7014"/>
</linearGradient>
<path class="st0" d="M364.3,134.2c-18.2-1.3-30.4-2.2-42.6-2.9c-34.8-2.2-68.2-8.6-101.2-21.5c-33-12.9-68.2-20.1-104-30.3
	c-37,39.4-72.6,77.4-108.8,116c12.5,49.9,25.3,96.9,67.3,132c33.6,28,61.8,62.6,91.3,93.2c6.8-2.4,10.5-2.5,12.3-4.4
	c34-36.3,77.7-41.8,123.6-39c21.3,1.3,39.8-4.5,57.9-15.6c37.4-23,75.6-44.8,113.7-67.2c6.1-20.4,11.8-39.9,18.4-62
	C442,207.8,385.8,192.9,364.3,134.2z M117.3,99c26.4,20,49.1,37.2,72.6,55c-21.6,33.1-42.2,64.9-63.9,98.2
	c-33.4-20-64.4-38.6-97.4-58.4C60,160.3,87.9,130.5,117.3,99z M447.8,293.4c-38.3,22.2-75.9,44.1-114.2,66.3
	c-27.6-23-53.7-44.8-83-69.3c53.8-17.6,101.9-33.3,151.7-49.6C417.3,258.3,431.3,274.4,447.8,293.4z M321.9,228
	c-59.2,8-115.3,15.6-178.6,24.1c23.1-35.3,41.9-64.3,61.5-94.2c38.4,14,74.7,27.3,111.8,40.9C318.1,207.3,319.5,215.2,321.9,228z
	 M178.8,380.9c-13.8-39.8-26-74.9-39.3-113.3c68.6-9.4,133.1-18.2,197.7-27c0.4,1.8,0.8,3.7,1.2,5.5
	c-37.3,12.7-74.6,25.3-111.7,37.9C210.8,316.1,195.6,347,178.8,380.9z M122.8,267c11.9,38.8,34.1,74,34.3,117.2
	c-30.9-27.1-58.5-57-88.6-84.2C43,277,38,247.5,32,212.7C64.5,232.2,93.3,249.4,122.8,267z M392.4,218.2
	c-31.1-14.4-59.5-27.5-90.3-41.8c-4.5-8.3-10.1-18.4-18-32.8c26.9,1.6,48,2.8,70.4,4.1C366.4,170.8,392.8,185,392.4,218.2z
	 M311.2,359.4c-41.2,8.2-80.5-5.6-113.8,18.7c13.1-25.3,26.2-50.6,40.7-78.5C262.4,319.4,284.3,337.4,311.2,359.4z"/>
</svg>
